<svg width="16" height="17" viewBox="0 0 16 17" fill="none" xmlns="http://www.w3.org/2000/svg">
<path d="M-9.53674e-07 8.13892C-9.53674e-07 3.73267 3.5625 0.138916 8 0.138916C12.4062 0.138916 16 3.73267 16 8.13892C16 12.5764 12.4062 16.1389 8 16.1389C3.5625 16.1389 -9.53674e-07 12.5764 -9.53674e-07 8.13892ZM11.5937 6.76392C11.9375 6.42017 11.9375 5.88892 11.5937 5.54517C11.25 5.20142 10.7187 5.20142 10.375 5.54517L7 8.92017L5.59375 7.54517C5.25 7.20142 4.71875 7.20142 4.375 7.54517C4.03125 7.88892 4.03125 8.42017 4.375 8.76392L6.375 10.7639C6.71875 11.1077 7.25 11.1077 7.59375 10.7639L11.5937 6.76392Z" fill="#69686D"/>
</svg>
