<svg width="16" height="17" viewBox="0 0 16 17" fill="none" xmlns="http://www.w3.org/2000/svg">
<path d="M0.562499 7.38892C0.281249 7.38892 0.031249 7.13892 0.093749 6.85767C0.281249 5.60767 0.781249 4.48267 1.46875 3.48267C1.65625 3.26392 2 3.23267 2.21875 3.45142C2.40625 3.63892 2.40625 3.92017 2.25 4.10767C1.6875 4.95142 1.28125 5.92017 1.09375 6.95142C1.03125 7.20142 0.843749 7.38892 0.562499 7.38892ZM3.96875 2.42017C3.75 2.57642 3.46875 2.57642 3.28125 2.38892C3.0625 2.17017 3.09375 1.82642 3.3125 1.63892C4.3125 0.951416 5.4375 0.451416 6.6875 0.263916C6.96875 0.201416 7.25 0.451416 7.25 0.732666C7.25 1.01392 7.03125 1.20142 6.78125 1.26392C5.75 1.45142 4.78125 1.85767 3.96875 2.42017ZM8.75 15.5764C8.75 15.2952 8.9375 15.1077 9.1875 15.0452C10.2187 14.8577 11.1875 14.4514 12 13.8889C12.2187 13.7327 12.5 13.7327 12.6875 13.9202C12.9062 14.1389 12.875 14.4827 12.6562 14.6389C11.6562 15.3577 10.5312 15.8577 9.28125 16.0452C9 16.1077 8.75 15.8577 8.75 15.5764ZM14.875 9.35767C14.9375 9.10767 15.125 8.88892 15.4062 8.88892C15.6875 8.88892 15.9375 9.17017 15.875 9.45142C15.6875 10.7014 15.1875 11.8264 14.5 12.8264C14.3125 13.0452 13.9687 13.0764 13.75 12.8577C13.5625 12.6702 13.5625 12.3889 13.7187 12.1702C14.2812 11.3577 14.6875 10.3889 14.875 9.35767ZM3.96875 13.8889C4.78125 14.4514 5.75 14.8577 6.78125 15.0452C7.03125 15.1077 7.25 15.2952 7.25 15.5764C7.25 15.8577 6.96875 16.1077 6.6875 16.0452C5.4375 15.8577 4.3125 15.3577 3.3125 14.6389C3.09375 14.4827 3.0625 14.1389 3.28125 13.9202C3.46875 13.7327 3.75 13.7327 3.96875 13.8889ZM0.093749 9.45142C0.031249 9.17017 0.281249 8.88892 0.562499 8.88892C0.843749 8.88892 1.03125 9.10767 1.09375 9.35767C1.28125 10.3889 1.6875 11.3577 2.25 12.1702C2.40625 12.3889 2.40625 12.6702 2.21875 12.8577C2 13.0764 1.65625 13.0452 1.46875 12.8264C0.781249 11.8264 0.281249 10.7014 0.093749 9.45142ZM12 2.42017C11.1875 1.85767 10.2187 1.45142 9.1875 1.26392C8.9375 1.20142 8.75 1.01392 8.75 0.732666C8.75 0.451416 9 0.201416 9.28125 0.263916C10.5312 0.451416 11.6562 0.951416 12.6562 1.63892C12.875 1.82642 12.9062 2.17017 12.6875 2.38892C12.5 2.57642 12.2187 2.57642 12 2.42017ZM13.7187 4.10767C13.5625 3.92017 13.5625 3.63892 13.75 3.45142C13.9687 3.23267 14.3125 3.26392 14.5 3.48267C15.1875 4.48267 15.6875 5.60767 15.875 6.85767C15.9375 7.13892 15.6875 7.38892 15.4062 7.38892C15.125 7.38892 14.9375 7.20142 14.875 6.95142C14.6875 5.92017 14.2812 4.95142 13.7187 4.10767Z" fill="#69686D"/>
</svg>
