<svg width="168" height="204" viewBox="0 0 168 204" fill="none" xmlns="http://www.w3.org/2000/svg">
<g clip-path="url(#clip0_292_773)">
<path d="M84 203.523C130.276 203.523 167.79 166.009 167.79 119.733C167.79 73.4569 130.276 35.9429 84 35.9429C37.7241 35.9429 0.209999 73.4569 0.209999 119.733C0.209999 166.009 37.7241 203.523 84 203.523Z" fill="#F0F0F0"/>
<path d="M151.088 123.655C158.542 127.943 158.542 134.895 151.088 139.182C143.634 143.47 131.548 143.47 124.094 139.182C116.639 134.895 116.639 127.943 124.094 123.655C131.548 119.367 143.634 119.367 151.088 123.655Z" fill="#D8D8D8"/>
<path d="M122.399 194.741L130.225 190.239C139.058 184.51 146.745 177.175 152.868 168.649L46.4465 107.462C45.2853 106.794 43.4016 106.794 42.2397 107.462L0.968414 131.2C1.84355 137.689 3.46479 143.941 5.74072 149.871L97.6716 202.726C106.438 201.339 114.754 198.605 122.399 194.741Z" fill="#D9DAD9"/>
<path d="M148.582 159.919L145.605 157.363C145.605 157.363 145.722 148.232 148.406 140.883C152.177 130.552 160.18 128.288 162.619 129.862C165.058 131.433 165.063 134.712 159.081 139.944C155.552 143.031 150.425 150.009 148.582 159.918V159.919Z" fill="#1FB5AD"/>
<path d="M149.377 156.486L145.758 154.405C146.01 151.111 146.674 145.627 148.405 140.884C151.476 132.474 157.351 129.41 160.744 129.41C161.519 129.41 162.165 129.57 162.619 129.863C163.569 130.475 164.149 131.346 164.151 132.492C164.152 134.286 162.731 136.752 159.08 139.946C155.973 142.663 151.629 148.395 149.376 156.487L149.377 156.486Z" fill="#00B09F"/>
<path d="M148.195 155.451L148.228 155.455C148.361 155.462 148.477 155.36 148.484 155.226C149.05 144.979 155.216 134.827 160.602 131.298C160.714 131.226 160.746 131.074 160.671 130.963C160.598 130.852 160.447 130.82 160.335 130.894C154.849 134.487 148.572 144.801 147.999 155.199C147.991 155.322 148.078 155.428 148.195 155.451Z" fill="#FEFEFE"/>
<path d="M166.149 139.785C165.89 139.707 165.619 139.657 165.355 139.623C164.667 139.536 163.946 139.713 163.289 139.926C161.163 140.616 159.627 142.668 157.431 143.09C156.585 143.253 155.711 143.155 154.85 143.212C153.99 143.268 153.075 143.523 152.548 144.203C151.511 145.545 152.539 147.646 151.706 149.122C150.968 150.428 149.501 150.699 148.49 151.809C148.049 152.294 147.847 152.915 147.776 153.567C147.655 154.67 147.659 155.498 147.946 156.806C148.183 157.887 149.104 159.919 149.104 159.919C149.121 159.944 152.769 163.103 155.207 165.214C160.179 157.509 163.915 148.94 166.148 139.784L166.149 139.785Z" fill="#1FB5AD"/>
<path d="M152.479 163.13L152.485 163.131C152.622 163.152 152.746 163.06 152.766 162.928C154.218 153.406 160.722 143.846 164.563 141.446C164.677 141.376 164.711 141.226 164.64 141.112C164.568 140.999 164.418 140.965 164.305 141.036C160.386 143.483 153.757 153.2 152.285 162.856C152.266 162.985 152.352 163.105 152.479 163.13V163.13Z" fill="#FEFEFE"/>
<path d="M156.081 152.246L156.153 152.249C158.256 152.023 160.613 152.187 162.012 152.329C162.077 152.174 162.139 152.018 162.204 151.862C160.802 151.714 158.317 151.529 156.101 151.767C155.968 151.782 155.87 151.901 155.885 152.035C155.897 152.142 155.979 152.226 156.081 152.246Z" fill="#FEFEFE"/>
<path d="M146.248 159.436L142.847 161.391L97.5772 187.412C97.4578 187.479 97.3383 187.541 97.2137 187.593C96.4661 187.898 95.6301 187.898 94.8832 187.593C94.7586 187.541 94.634 187.479 94.5146 187.412L8.55853 137.972L4.40036 135.583C4.23964 135.49 4.10988 135.386 4.01109 135.278C3.58052 134.808 3.7147 134.208 4.40036 133.809L53.0502 105.829C53.668 105.477 54.3072 105.223 54.9398 105.306C55.0953 105.327 55.2465 105.368 55.402 105.431C55.4794 105.461 55.5635 105.498 55.6409 105.544L146.248 157.662C146.934 158.055 146.934 159.043 146.248 159.435L146.248 159.436ZM157.604 161.261C157.517 161.184 157.408 161.106 157.284 161.035L48.906 98.6974C47.9151 98.1282 46.3057 98.1282 45.3141 98.6974L0.338776 124.565C0.569539 128.779 1.11069 132.912 1.94306 136.938L100.557 193.66C100.863 193.835 101.237 193.954 101.627 194.022C101.86 194.063 102.11 194.078 102.353 194.084C102.598 194.084 102.841 194.063 103.075 194.027C103.158 194.016 103.236 194.001 103.309 193.98C103.537 193.929 103.755 193.857 103.958 193.763C104.025 193.732 104.088 193.696 104.151 193.66L156.116 163.771C156.626 162.944 157.122 162.107 157.604 161.261Z" fill="#414141"/>
<path d="M3.90784 144.577L100.546 200.162C100.924 200.379 101.381 200.509 101.866 200.562C102.024 200.581 102.182 200.591 102.347 200.592L102.352 200.592V194.087L102.353 194.083C102.108 194.08 101.863 194.061 101.627 194.023C101.235 193.956 100.863 193.834 100.555 193.657L1.94304 136.938C2.47976 139.53 3.13814 142.078 3.90784 144.577Z" fill="#626262"/>
<path d="M129.214 174.342C127.475 173.344 124.542 173.344 122.802 174.342C122.356 174.601 122.023 174.901 121.841 175.216C121.265 176.209 122.319 176.959 122.802 177.238C124.541 178.236 127.475 178.236 129.214 177.238C129.656 176.979 129.987 176.679 130.175 176.364C130.75 175.371 129.692 174.622 129.214 174.342Z" fill="#626262"/>
<path d="M23.0944 116.779C23.5795 116.5 23.5795 116.047 23.0944 115.769C22.6093 115.49 21.8234 115.49 21.3383 115.769C20.8531 116.047 20.8531 116.5 21.3383 116.779C21.8234 117.058 22.6093 117.058 23.0944 116.779Z" fill="#414141"/>
<path d="M20.3341 121.565C20.7639 121.318 20.7639 120.917 20.3341 120.669C19.9043 120.422 19.2054 120.422 18.7755 120.669C18.345 120.917 18.345 121.318 18.7755 121.565C19.2054 121.813 19.9043 121.813 20.3341 121.565Z" fill="#414141"/>
<path d="M22.972 120.084L31.696 115.066C32.1738 114.791 32.1989 114.359 31.7499 114.101C31.3023 113.843 30.5503 113.857 30.0726 114.132L21.3486 119.15C20.8708 119.425 20.8465 119.857 21.2955 120.115C21.7437 120.373 22.495 120.359 22.9727 120.084L22.972 120.084Z" fill="#414141"/>
<path d="M157.521 161.192C157.551 161.215 157.577 161.238 157.604 161.26L157.607 161.256L157.521 161.191V161.192ZM156.116 163.77L104.148 193.663C103.654 193.947 103.003 194.089 102.352 194.087V200.592C103.006 200.589 103.649 200.446 104.144 200.158L147.755 175.081C150.845 171.558 153.645 167.776 156.117 163.77H156.116Z" fill="#323232"/>
<path d="M17.5244 147.725C18.0368 148.021 18.4526 148.708 18.4526 149.262C18.4526 149.529 18.3546 149.714 18.1968 149.802C18.0847 149.863 17.6623 150.115 17.5458 150.179C17.3777 150.272 17.1396 150.255 16.8764 150.103L4.79335 143.154C4.28095 142.859 3.86514 142.17 3.86514 141.617C3.86514 141.361 3.95434 141.181 4.10032 141.09C4.21534 141.017 4.65474 140.765 4.77049 140.7C4.93933 140.606 5.1782 140.623 5.44214 140.776L17.5244 147.725Z" fill="#414141"/>
<path d="M16.8763 148.099L4.79406 141.149C4.28166 140.854 3.86584 141.064 3.86584 141.617C3.86584 142.171 4.28166 142.859 4.79406 143.155L16.8763 150.104C17.3887 150.399 17.8045 150.19 17.8045 149.636C17.8045 149.082 17.3887 148.394 16.8763 148.099Z" fill="#626262"/>
<path d="M146.248 159.411L142.847 161.365L97.5772 187.385C97.4578 187.453 97.3383 187.515 97.2137 187.567C96.4662 187.872 95.6301 187.872 94.8832 187.567C94.7587 187.515 94.6341 187.453 94.5146 187.385L8.55854 137.947L4.40037 135.557C4.23965 135.465 4.10989 135.361 4.0111 135.253C3.58053 134.782 3.71472 134.182 4.40037 133.784L53.0502 105.803C53.668 105.451 54.3072 105.198 54.9398 105.28C55.0953 105.302 55.2465 105.343 55.402 105.404C55.4795 105.435 55.5635 105.472 55.6409 105.518L146.248 157.636C146.934 158.03 146.934 159.017 146.248 159.411H146.248Z" fill="#1FB5AD"/>
<path d="M96.0481 187.796C95.6522 187.796 95.2563 187.72 94.8825 187.568C94.7579 187.516 94.6333 187.454 94.5138 187.386L8.55777 137.948L4.3996 135.558C4.23888 135.466 4.10912 135.362 4.01033 135.254C3.84887 135.077 3.76703 134.883 3.76334 134.688C3.76334 134.684 3.76334 134.679 3.76334 134.676C3.76334 134.354 3.97641 134.031 4.3996 133.785L26.8434 120.877V126.615L39.8192 134.078L26.8434 141.542L67.4784 164.979L108.113 141.542L95.1376 134.078L100.213 131.16L146.247 157.639C146.589 157.836 146.761 158.181 146.761 158.526C146.761 158.53 146.761 158.535 146.761 158.538C146.756 158.879 146.585 159.219 146.247 159.413L142.846 161.367L97.5764 187.387C97.457 187.455 97.3376 187.516 97.213 187.569C96.8392 187.721 96.444 187.797 96.0481 187.797V187.796ZM100.23 175.612C100.437 175.731 100.708 175.79 100.98 175.79C101.012 175.79 101.044 175.79 101.075 175.789C101.29 175.777 101.501 175.729 101.674 175.642C101.675 175.642 101.676 175.641 101.676 175.641C101.694 175.632 101.712 175.623 101.729 175.612L128.359 160.295C128.773 160.057 129.108 159.479 129.108 159.002V158.704C129.108 158.229 128.773 157.649 128.359 157.411L112.277 148.161C112.07 148.042 111.799 147.982 111.528 147.982C111.256 147.982 110.985 148.042 110.778 148.161L84.1472 163.478C83.7336 163.716 83.3981 164.295 83.3981 164.771V165.068C83.3981 165.545 83.7336 166.124 84.1472 166.362L100.229 175.612L100.23 175.612Z" fill="white"/>
<path d="M14.2001 131.596L13.6051 131.254L13.7828 131.836L14.2001 131.596ZM14.6742 131.895L14.6041 131.873L14.3652 131.736L13.7902 132.066L13.6921 132.064L13.6059 132.015L13.566 131.985L13.5476 131.951L13.3036 131.108L13.3014 131.074L13.3323 131.047L13.4127 131L13.4842 130.98L13.5587 131.005L14.3933 131.484L14.5201 131.411L14.5886 131.392L14.6609 131.417L14.7184 131.449L14.7575 131.489L14.7235 131.528L14.5967 131.601L14.8356 131.738L14.8747 131.778L14.8386 131.819L14.7412 131.874L14.6727 131.894L14.6742 131.895Z" fill="#42616A"/>
<path d="M15.2131 131.419C14.972 131.41 14.7316 131.337 14.4928 131.2C14.2554 131.062 14.1286 130.925 14.1123 130.785C14.0961 130.646 14.1905 130.517 14.3954 130.4C14.4773 130.353 14.5635 130.314 14.655 130.284C14.7456 130.254 14.8326 130.236 14.9167 130.23L14.9602 130.236L14.9779 130.255L15.0302 130.345L15.028 130.369L14.9934 130.376C14.8577 130.393 14.7331 130.434 14.6196 130.5C14.4817 130.579 14.4176 130.666 14.4294 130.765C14.4412 130.862 14.5377 130.962 14.7213 131.068C14.9064 131.175 15.0811 131.231 15.247 131.238C15.4114 131.247 15.5611 131.212 15.6945 131.136C15.7432 131.108 15.7852 131.078 15.8228 131.046L15.8972 130.959L15.5094 130.735L15.2698 130.873L15.2013 130.892L15.129 130.868L15.0745 130.837L15.0332 130.796L15.0678 130.758L15.4505 130.538L15.5301 130.518L15.6156 130.547L16.1693 130.865L16.2106 130.895L16.2157 130.926C16.1855 131.036 16.0742 131.147 15.8832 131.256C15.6775 131.374 15.4541 131.429 15.2131 131.419Z" fill="#42616A"/>
<path d="M19.9729 128.579C20.1572 128.686 20.1572 128.858 19.9729 128.964C19.7886 129.071 19.4892 129.071 19.3049 128.964C19.1206 128.858 19.1206 128.686 19.3049 128.579C19.4892 128.474 19.7886 128.474 19.9729 128.579Z" fill="#42616A"/>
<path d="M18.7593 128.266C18.4224 128.459 18.3192 128.736 18.4482 128.981C18.474 129.03 18.5595 129.062 18.6495 129.055H18.6502C18.7623 129.048 18.8382 128.983 18.8043 128.921C18.7114 128.748 18.7851 128.553 19.0218 128.417C19.2584 128.28 19.5983 128.239 19.8976 128.293C20.006 128.312 20.1188 128.269 20.1321 128.203V128.203C20.1431 128.151 20.0879 128.103 20.0023 128.088C19.5777 128.014 19.0962 128.073 18.76 128.266L18.7593 128.266Z" fill="#42616A"/>
<path d="M18.2248 127.959C17.725 128.246 17.5458 128.649 17.6874 129.021C17.708 129.076 17.795 129.113 17.8916 129.107H17.8938C18.0036 129.099 18.0752 129.039 18.0508 128.977C17.9329 128.674 18.0788 128.344 18.4873 128.11C18.8957 127.874 19.4701 127.79 19.9972 127.858C20.1048 127.872 20.2095 127.83 20.2221 127.769C20.2339 127.713 20.1682 127.663 20.0739 127.65C19.4302 127.567 18.7262 127.671 18.2256 127.959H18.2248Z" fill="#42616A"/>
<path d="M28.068 123.214L28.0112 123.196L27.995 123.16L28.096 122.667L28.1078 122.631L28.1365 122.601L28.3083 122.502L28.3688 122.487L28.4278 122.502L29.8536 123.322L29.8794 123.356L29.8544 123.391L29.6752 123.494L29.6162 123.508L29.5565 123.494L28.4646 122.867L28.3968 123.188L28.3658 123.22L28.3017 123.229L28.068 123.214Z" fill="#42616A"/>
<path d="M29.1849 122.572L29.1289 122.553L29.1119 122.517L29.2144 122.025L29.2255 121.989L29.2535 121.959L29.426 121.859L29.4857 121.845L29.5447 121.859L30.9721 122.68L30.9964 122.714L30.9713 122.748L30.7936 122.851L30.7332 122.865L30.6735 122.851L29.5823 122.224L29.5145 122.545L29.4835 122.577L29.4194 122.587L29.1849 122.572Z" fill="#42616A"/>
<path d="M31.3629 122.138L31.4233 122.124L31.4823 122.138L31.699 122.262L31.7234 122.296L31.6983 122.331L31.4926 122.449L31.4329 122.463L31.3739 122.449L31.1572 122.325L31.1321 122.291L31.1572 122.256L31.3629 122.138ZM30.5895 121.693L30.6492 121.679L30.7089 121.693L30.9249 121.818L30.9492 121.852L30.9249 121.887L30.72 122.005L30.6595 122.019L30.5998 122.005L30.383 121.88L30.3587 121.845L30.383 121.811L30.5887 121.693H30.5895Z" fill="#42616A"/>
<path d="M32.2158 121.339L31.7425 121.068L31.8376 121.556L32.2158 121.339ZM32.8786 121.652L32.8182 121.665L32.7584 121.652L32.4908 121.498L31.8059 121.892L31.7469 121.906L31.6865 121.892L31.5294 121.802L31.4896 121.762L31.4741 121.714L31.3068 120.841L31.3414 120.757L31.5095 120.66L31.5692 120.646L31.629 120.66L32.5122 121.168L32.7024 121.059L32.7621 121.045L32.8218 121.059L32.9789 121.149L33.0032 121.184L32.9789 121.218L32.7894 121.327L33.0563 121.481L33.0814 121.516L33.0563 121.55L32.8779 121.653L32.8786 121.652Z" fill="#42616A"/>
<path d="M32.2793 120.287L32.2557 120.252L32.2793 120.218L33.1094 119.74L33.1691 119.727L33.2296 119.74L33.3866 119.83L33.4102 119.865L33.3859 119.899L32.7651 120.256L33.0239 120.432L33.1131 120.348L33.2045 120.29C33.2864 120.243 33.3748 120.205 33.467 120.178C33.5599 120.149 33.6535 120.133 33.7494 120.128C33.8437 120.123 33.9374 120.131 34.0303 120.15C34.1231 120.169 34.2109 120.203 34.2927 120.25C34.3871 120.305 34.4527 120.36 34.4896 120.416C34.5264 120.471 34.5404 120.527 34.5316 120.582C34.5227 120.637 34.4933 120.69 34.4416 120.742C34.3908 120.795 34.3259 120.844 34.2463 120.889C34.1445 120.947 34.0457 120.991 33.9499 121.019C33.8533 121.048 33.7604 121.064 33.6719 121.068C33.5835 121.073 33.5009 121.067 33.425 121.051C33.3483 121.034 33.2797 121.01 33.22 120.979L33.1935 120.945L33.22 120.911L33.3992 120.808L33.4522 120.792L33.5156 120.801C33.5584 120.816 33.6004 120.823 33.6402 120.825L33.7567 120.816L33.8666 120.782L33.9698 120.73C34.0538 120.681 34.0988 120.63 34.104 120.574C34.1099 120.518 34.0738 120.467 33.9941 120.422C33.9278 120.384 33.8467 120.367 33.7508 120.371C33.6557 120.375 33.565 120.401 33.4795 120.448C33.436 120.473 33.4036 120.495 33.3851 120.514L33.3461 120.563L33.3247 120.602L33.2841 120.637L33.0807 120.754L33.0217 120.768L32.962 120.754L32.2793 120.286V120.287Z" fill="#42616A"/>
<path d="M8.49734 135.652L8.03729 135.388L8.6507 135.035L9.11149 135.3L8.49734 135.652Z" fill="#42616A"/>
<path d="M9.41819 135.122L8.49734 134.593L9.11149 134.239L10.0323 134.77L9.41819 135.122Z" fill="#42616A"/>
<path d="M10.3397 134.593L8.95811 133.799L9.57225 133.445L10.9531 134.239L10.3397 134.593Z" fill="#42616A"/>
<path d="M11.2598 134.063L9.41887 133.004L10.0323 132.651L11.874 133.711L11.2598 134.063Z" fill="#42616A"/>
<path d="M51.5262 110.648C51.4717 110.644 51.409 110.622 51.3537 110.591L50.5162 110.109C50.3702 110.025 50.34 109.901 50.4491 109.838L52.7449 108.522L52.8393 108.492L52.8968 108.491C52.9514 108.496 53.014 108.516 53.0693 108.549L53.9061 109.03C54.0521 109.114 54.0831 109.238 53.974 109.301L51.6774 110.618C51.6361 110.642 51.5823 110.652 51.5262 110.648ZM52.8762 108.407C52.725 108.394 52.5968 108.414 52.5149 108.461L50.2183 109.778C50.0694 109.864 50.1085 110.02 50.3061 110.134L51.1436 110.615C51.2542 110.678 51.3972 110.72 51.5476 110.732C51.6118 110.738 51.673 110.737 51.729 110.731C51.802 110.722 51.8624 110.704 51.9089 110.678L54.204 109.361C54.3529 109.276 54.3146 109.12 54.1163 109.006L53.2795 108.524C53.1696 108.461 53.0258 108.419 52.8762 108.407Z" fill="#42616A"/>
<path d="M51.03 109.672L52.0202 110.242L51.6597 110.448L51.5373 110.459L50.8015 110.035C50.6953 109.974 50.6725 109.88 50.7499 109.834L51.0308 109.672H51.03Z" fill="#42616A"/>
<path d="M51.2004 109.578L51.6287 109.33L52.6189 109.899L52.1868 110.146L51.2004 109.578Z" fill="#42616A"/>
<path d="M51.799 109.236L52.2281 108.987L53.2205 109.558L52.7892 109.805L51.799 109.236Z" fill="#42616A"/>
<path d="M52.8924 108.682L53.6061 109.092C53.7366 109.168 53.7093 109.278 53.5331 109.379L53.3879 109.462L52.397 108.892L52.7405 108.696L52.8924 108.682V108.682Z" fill="#42616A"/>
<path d="M53.3716 108.479C53.4342 108.443 53.6245 108.493 53.7962 108.592L53.9518 108.681C54.1236 108.78 54.2143 108.893 54.1538 108.932L54.0447 109.003L53.2573 108.546C53.2573 108.546 53.3082 108.517 53.3708 108.479H53.3716Z" fill="#42616A"/>
<path d="M47.0289 112.253L48.8094 110.713L49.748 112.044L48.5175 111.71L47.0289 112.253Z" fill="#42616A"/>
<path d="M67.4785 164.978L26.8434 141.54L39.8185 134.077L67.4777 149.986H67.4792H67.4777H67.4792L95.1384 134.077L108.113 141.54L67.4785 164.978Z" fill="#EDEDED"/>
<path d="M83.3989 164.771V165.067C83.3989 165.544 83.7343 166.124 84.1479 166.361L100.23 175.611C100.643 175.849 101.315 175.849 101.729 175.611L128.359 160.294C128.774 160.056 129.109 159.477 129.109 159.001V158.703C129.109 158.227 128.774 157.648 128.359 157.41L112.278 148.159C111.864 147.921 111.193 147.921 110.779 148.159L84.1479 163.477C83.7343 163.715 83.3989 164.293 83.3989 164.77V164.771Z" fill="#1FB5AD"/>
<path d="M83.3989 164.771V165.067C83.3989 165.544 83.7343 166.124 84.1479 166.361L100.23 175.611C100.643 175.849 101.315 175.849 101.729 175.611L128.359 160.294C128.774 160.056 129.109 159.477 129.109 159.001V158.703C129.109 158.227 128.774 157.648 128.359 157.41L112.278 148.159C111.864 147.921 111.193 147.921 110.779 148.159L84.1479 163.477C83.7343 163.715 83.3989 164.293 83.3989 164.77V164.771Z" fill="#1FB5AD"/>
<path d="M101.076 175.788C101.29 175.776 101.501 175.728 101.674 175.641C101.501 175.728 101.291 175.776 101.076 175.788Z" fill="#ACD2CD"/>
<path d="M100.98 175.79H100.979V173.767C101.25 173.767 101.522 173.707 101.729 173.589L122.393 161.702L123.94 160.813L128.359 158.272C128.566 158.152 128.669 157.996 128.669 157.84C128.669 157.69 128.573 157.54 128.382 157.423C128.785 157.67 129.108 158.236 129.108 158.702V159C129.108 159.476 128.772 160.056 128.358 160.293L101.728 175.61C101.711 175.62 101.693 175.629 101.675 175.639C101.675 175.639 101.674 175.64 101.673 175.64C101.5 175.726 101.29 175.775 101.075 175.787C101.043 175.788 101.011 175.788 100.98 175.788V175.79Z" fill="#0FB9AD"/>
<path d="M100.979 175.789C100.708 175.789 100.437 175.73 100.23 175.611L84.1479 166.361C83.7343 166.123 83.3989 165.544 83.3989 165.068V164.771C83.3989 164.294 83.7343 163.716 84.1479 163.478C83.9408 163.597 83.8375 163.752 83.8375 163.909C83.8375 164.062 83.9378 164.215 84.1376 164.333C84.1391 164.334 84.1406 164.335 84.142 164.335L84.1428 164.336C84.145 164.337 84.1465 164.338 84.1479 164.339L97.6553 172.107L98.9197 172.835L100.23 173.589C100.437 173.708 100.708 173.767 100.98 173.767V175.789H100.979Z" fill="#0DB7A7"/>
<path d="M97.6546 172.108L84.1472 164.34C83.7336 164.101 83.7336 163.715 84.1472 163.477L110.778 148.16C111.192 147.922 111.863 147.922 112.278 148.16L128.359 157.411C128.773 157.649 128.773 158.035 128.359 158.273L123.94 160.813L122.393 161.703L101.729 173.59C101.314 173.828 100.643 173.828 100.229 173.59L98.919 172.836L97.6546 172.109V172.108Z" fill="#1FB5AD"/>
<path d="M100.979 173.768C100.708 173.768 100.436 173.709 100.229 173.59L98.919 172.836L97.6546 172.108L84.1472 164.34L103.666 163.212L100.979 173.769V173.768ZM100.979 173.768L104.414 163.168L107.748 162.976C108.168 162.951 108.551 162.782 108.848 162.517H108.849L108.85 162.515C109.127 162.267 109.331 161.935 109.412 161.551L109.914 159.203L128.357 157.411L110.077 158.442L112.276 148.161C112.07 148.043 111.803 147.988 111.533 147.988C111.509 147.988 111.486 147.988 111.461 147.989C111.212 147.998 110.967 148.051 110.776 148.16L97.4607 155.819L84.145 163.477C83.9548 163.587 83.8553 163.728 83.8405 163.872L87.532 163.568L89.6074 163.397L108.009 161.886L83.8405 163.872C83.8235 164.036 83.9194 164.205 84.1347 164.333C83.9349 164.215 83.8346 164.061 83.8346 163.908C83.8346 163.753 83.9378 163.596 84.145 163.477L110.776 148.16C110.983 148.041 111.254 147.981 111.525 147.981C111.797 147.981 112.067 148.041 112.275 148.16L128.356 157.41C128.564 157.529 128.667 157.685 128.667 157.841C128.667 157.997 128.564 158.154 128.356 158.273L123.938 160.813L122.391 161.703L101.727 173.59C101.519 173.708 101.248 173.768 100.977 173.768H100.979Z" fill="#2FBDBA"/>
<path d="M100.979 173.768L103.666 163.212L84.1472 164.34C84.1457 164.338 84.1443 164.338 84.142 164.337L84.1413 164.336C84.1398 164.335 84.1384 164.335 84.1369 164.334C83.9216 164.206 83.8258 164.038 83.8427 163.873L108.012 161.887L108.67 159.259L109.034 157.797L111.463 147.989C111.486 147.988 111.51 147.988 111.534 147.988C111.803 147.988 112.072 148.042 112.278 148.16L110.079 158.441L128.359 157.411L109.915 159.203L109.413 161.551C109.332 161.934 109.129 162.266 108.851 162.515L108.851 162.517H108.849C108.551 162.782 108.169 162.95 107.749 162.975L104.415 163.168L100.98 173.768L100.979 173.768Z" fill="#0FB9AD"/>
<path d="M83.8427 163.872C83.8575 163.728 83.957 163.587 84.1472 163.478L97.4629 155.819L110.778 148.161C110.968 148.051 111.214 147.999 111.464 147.99C111.463 147.99 111.462 147.99 111.461 147.99L108.012 161.887L89.6096 163.399L87.5342 163.569L83.8427 163.873V163.872Z" fill="#70CAC8"/>
<path d="M108.012 161.886L111.461 147.988C111.461 147.988 111.462 147.988 111.464 147.988L109.034 157.797L108.671 159.259L108.012 161.886L108.012 161.886Z" fill="#68C7C0"/>
<path d="M108.483 145.966C110.165 144.999 112.891 144.999 114.573 145.966C116.255 146.934 116.255 148.502 114.573 149.469C112.892 150.436 110.165 150.436 108.483 149.469C106.801 148.502 106.801 146.933 108.483 145.966Z" fill="#FF5259"/>
<path d="M109.401 148.295C109.347 148.29 109.305 148.276 109.274 148.251L109.239 148.166L109.491 147.063L109.52 146.965C109.531 146.928 109.562 146.895 109.612 146.865L110.228 146.511C110.266 146.49 110.311 146.479 110.365 146.479C110.419 146.479 110.464 146.49 110.501 146.511L113.763 148.387L113.818 148.466L113.763 148.544L113.102 148.924C113.064 148.946 113.018 148.956 112.965 148.956C112.911 148.956 112.865 148.945 112.829 148.924L110.622 147.656L110.476 148.262L110.403 148.337C110.361 148.355 110.313 148.362 110.26 148.358L109.401 148.295H109.401Z" fill="#F7F7F6"/>
<path d="M27.6507 127.077L67.4784 104.169L107.307 127.077L67.4792 149.986L27.6507 127.077Z" fill="#222124"/>
<path d="M67.4785 104.169V64.9951L26.8434 88.3681L60.8409 107.988L67.4785 104.169Z" fill="#384E55"/>
<path d="M67.4784 64.9951V104.169L74.1167 107.988L108.113 88.3674L67.4784 64.9951Z" fill="#414141"/>
<path d="M26.8434 88.3682V126.614L67.4777 149.986L67.4785 111.806L26.8434 88.3682Z" fill="#1FB5AD"/>
<path d="M67.4792 149.986L67.4784 111.806L67.4777 149.986H67.4792Z" fill="#222124"/>
<path d="M67.4777 149.986L26.8434 126.614V88.3682L67.4785 111.806L67.4777 149.986Z" fill="#009984"/>
<path d="M67.4784 111.806L67.4777 149.986L108.113 126.613V88.3677L67.4784 111.806Z" fill="#1FB5AD"/>
<path d="M67.4792 149.986L107.306 127.077H107.307L67.4777 149.986H67.4792Z" fill="#222124"/>
<path d="M67.4777 149.986L97.7925 132.55L68.2806 148.527L67.4792 111.806L108.113 88.3677V126.613L107.307 127.078L67.4777 149.986Z" fill="#00AE99"/>
<path d="M67.4777 149.986L67.4784 111.806L68.2798 148.526L97.7925 132.55L67.4777 149.986Z" fill="#A0D8D4"/>
<path d="M78.3869 139.955C78.2667 139.955 78.1702 139.858 78.1702 139.739V134.897C78.1702 134.778 78.2675 134.681 78.3869 134.681C78.5071 134.681 78.6044 134.779 78.6044 134.897V139.739C78.6044 139.859 78.5078 139.955 78.3869 139.955Z" fill="#EAEAE9"/>
<path d="M77.7522 136.575L77.6659 136.557C77.5553 136.51 77.5052 136.382 77.5531 136.273L78.3258 134.496L79.1862 135.487C79.2643 135.577 79.2547 135.714 79.1648 135.792C79.0741 135.868 78.937 135.861 78.8588 135.77L78.4504 135.3L77.952 136.445C77.9166 136.526 77.837 136.574 77.7529 136.574L77.7522 136.575Z" fill="#EAEAE9"/>
<path d="M80.3923 138.816C80.2729 138.816 80.1755 138.719 80.1755 138.6V133.759C80.1755 133.64 80.2729 133.543 80.3923 133.543C80.5125 133.543 80.6098 133.641 80.6098 133.759V138.6C80.6098 138.719 80.5125 138.816 80.3923 138.816Z" fill="#EAEAE9"/>
<path d="M79.7584 135.436L79.6721 135.418C79.5623 135.371 79.5114 135.243 79.5586 135.133L80.3312 133.358L81.1916 134.348C81.2705 134.437 81.2602 134.575 81.1702 134.652C81.0788 134.73 80.9424 134.72 80.8643 134.631L80.4551 134.16L79.9574 135.305C79.9221 135.386 79.8417 135.435 79.7584 135.435V135.436Z" fill="#EAEAE9"/>
<path d="M72.6046 143.241C72.5191 143.241 72.4387 143.221 72.3679 143.18C72.202 143.087 72.1077 142.897 72.1077 142.661V142.069C72.1077 141.949 72.205 141.853 72.3244 141.853C72.4446 141.853 72.5412 141.95 72.5412 142.069V142.661C72.5412 142.75 72.5655 142.795 72.5825 142.805C72.598 142.817 72.6488 142.811 72.724 142.767C72.9157 142.656 73.1273 142.228 73.1273 141.791V139.312C73.1273 139.193 73.2246 139.096 73.3448 139.096C73.4642 139.096 73.5616 139.193 73.5616 139.312V141.791C73.5616 142.354 73.2961 142.934 72.9445 143.14C72.8295 143.207 72.713 143.24 72.6039 143.24L72.6046 143.241Z" fill="#EAEAE9"/>
<path d="M74.3925 136.124C74.0659 136.124 73.6972 136.237 73.3109 136.459C72.0111 137.206 70.9347 138.947 70.7747 140.486L75.6488 137.681C75.6237 137.006 75.3885 136.508 74.9793 136.272C74.8061 136.174 74.6085 136.124 74.3925 136.124ZM70.3206 141.245V140.871C70.3206 139.112 71.5643 136.964 73.0941 136.085C73.8764 135.635 74.624 135.569 75.1961 135.899C75.7697 136.229 76.0852 136.905 76.0852 137.805V137.93L70.3213 141.244L70.3206 141.245Z" fill="#EAEAE9"/>
<path d="M67.4785 64.9951L26.8434 88.3681L67.4785 111.806L108.113 88.3674L67.4785 64.9951Z" fill="#1FB5AD"/>
<path d="M67.4792 110.356L26.8434 88.3681L67.4785 64.9951L108.113 88.3674L67.4792 110.356Z" fill="#00B1A4"/>
<path d="M67.4785 111.806L60.8497 107.983L26.8434 88.3684L67.4792 110.356L108.113 88.3677L67.4785 111.806Z" fill="#A0D9D8"/>
<path d="M43.7039 78.6676L84.3721 102.059L90.6285 98.4526L49.9677 75.0649L43.7039 78.6676Z" fill="#42616A"/>
<path d="M90.6292 98.4492V106.377L89.8736 105.946L89.0869 107.298L88.301 106.837L87.515 108.205L86.7284 107.743L85.9425 109.096L85.1551 108.65L84.3691 110.002V102.059L90.6292 98.4492Z" fill="#1FB5AD"/>
<path d="M90.6292 98.4492V106.377L89.8736 105.946L89.0869 107.298L88.301 106.837L87.515 108.205L86.7284 107.743L85.9425 109.096L85.1551 108.65L84.3691 110.002V102.059L90.6292 98.4492Z" fill="#384E55"/>
<path d="M146.092 66.0545C145.774 64.7853 145.476 63.7996 144.658 61.8003C144.658 61.8003 130.754 63.4389 127.163 63.5095C125.818 69.3861 125.393 71.0042 124.33 74.4857C123.537 77.0843 121.589 85.4443 120.526 92.6607C120.299 94.2046 121.579 98.0159 122.148 99.4702C125.468 107.946 130.945 121.481 130.945 121.481C131.45 122.806 131.548 123.844 131.415 125.094C131.245 126.635 130.628 128.642 129.844 130.384C129.601 130.924 129.326 131.561 128.984 132.106C128.224 133.78 129.294 134.074 130.998 133.323C132.796 132.53 133.939 130.631 134.43 129.257C135.165 127.206 136.568 123.981 136.509 122.938L136.529 122.92L136.496 122.803V122.803L136.234 120.744C136.234 120.744 134.974 114.384 134.216 107.062C133.584 100.959 133.434 99.2924 130.469 94.6144L138.494 77.5911C141.028 73.0821 146.094 66.0545 146.094 66.0545H146.092Z" fill="#F69FA5"/>
<path d="M138.801 124.465C138.92 124.59 139.195 125.135 139.195 125.689C138.894 127.201 137.247 128.256 136.589 129.203C135.931 130.15 135.247 132.233 134.816 133.467C134.429 134.577 133.012 136.411 130.923 136.791C129.682 137.017 128.703 136.535 128.097 135.956C128.097 135.956 138.365 124.013 138.801 124.466V124.465Z" fill="#384E55"/>
<path d="M137.63 121.957C138.137 122.73 139.333 123.923 138.775 125.264C138.291 126.429 137.09 127.538 136.291 128.462C135.844 128.98 135.697 129.53 135.426 130.135C135.118 130.827 134.639 132.473 134.273 133.14C133.98 133.676 133.579 134.147 133.141 134.573C132.661 135.039 132.126 135.461 131.515 135.735C130.564 136.164 129.024 136.439 128.097 135.956C127.141 135.457 126.546 134.28 127.376 133.087C127.622 132.734 127.864 132.381 128.132 132.044C128.598 131.458 128.941 130.615 129.256 129.924C129.471 129.454 130.193 127.513 130.335 127.068C130.625 126.152 131.046 124.831 130.912 124.223C130.847 123.929 130.734 123.493 130.777 123.296C130.824 123.079 130.935 122.971 131.134 122.872C131.579 122.653 132.134 122.719 132.63 122.748C133.072 122.773 133.5 122.899 133.939 122.939C134.687 123.008 135.41 122.677 135.88 121.939C136.084 121.618 136.259 121.202 136.232 120.744L136.118 120.316C136.557 119.97 137.063 121.093 137.631 121.958L137.63 121.957Z" fill="#42616A"/>
<path d="M133.639 88.7449C133.639 88.7449 126.923 87.9986 121.511 83.7481C121.511 83.7481 126.054 66.0763 127.278 62.9268L142.172 70.2871L133.639 88.7449Z" fill="#626262"/>
<path d="M132.918 85.779L131.635 75.8354C131.635 75.8354 128.537 74.4546 127.405 70.3906C127.405 70.3906 128.979 73.1332 132.252 74.2261L134.214 87.5021L133.639 88.7441C133.639 88.7441 132.925 88.664 131.778 88.4106L132.918 85.7782V85.779Z" fill="#444444"/>
<path d="M153.494 73.758C153.89 73.1058 154.267 72.7356 154.836 72.4668C155.403 72.1972 157.148 72.2714 158.186 73.5053C159.225 74.7385 159.438 76.4741 160.099 77.4187C160.76 78.364 162.514 79.6494 163.524 80.483C164.433 81.2322 165.579 83.288 165.35 85.3901C165.203 86.7379 164.534 87.3409 163.777 87.7045L153.494 73.758Z" fill="#444444"/>
<path d="M153.947 73.2484C154.786 72.8525 156.303 73.0905 157.369 74.0799C158.295 74.9385 158.919 76.4471 159.509 77.5151C159.84 78.1144 160.306 78.4427 160.781 78.9069C161.324 79.438 162.704 80.4589 163.204 81.0333C163.605 81.4946 163.908 82.0329 164.156 82.5904C164.427 83.2015 164.637 83.8486 164.682 84.5148C164.753 85.5519 164.474 87.0855 163.695 87.7818C162.893 88.5009 161.578 88.6448 160.746 87.4527C160.5 87.0995 160.252 86.7506 160.028 86.3826C159.64 85.7443 159.037 85.001 158.498 84.4648C157.67 83.6429 156.628 82.9099 155.999 82.5507C155.9 82.4935 155.8 82.4266 155.701 82.3796C154.587 81.8471 153.453 81.4005 153.298 81.0039C153.169 80.6734 152.872 77.1229 151.992 76.3751C151.76 76.1783 151.882 75.8441 152.095 75.5349C152.306 75.2264 153.11 73.6414 153.948 73.2462L153.947 73.2484Z" fill="#626262"/>
<path d="M144.736 61.5537C146.343 66.3499 146.845 69.0536 146.741 74.7349C146.673 78.4602 146.103 87.2381 145.759 91.5107C145.417 95.7825 145.385 98.9665 143.751 100.319C142.117 101.672 138.619 101.251 137.357 98.4384C136.094 95.626 135.135 92.2415 134.287 87.0435C133.44 81.8455 133.687 78.5425 133.687 78.5425L133.175 64.4931L144.736 61.5552V61.5537Z" fill="#F69FA5"/>
<path d="M141.44 101.049C143.325 101.199 144.551 100.551 147.34 96.1812C150.13 91.8124 155.961 80.2647 155.961 80.2647C155.961 80.2647 156.772 78.0554 155.23 76.5056C153.497 74.7656 152.371 75.7006 152.371 75.7006C152.371 75.7006 150.891 77.5596 149.232 79.3657C147.706 81.0279 145.762 82.6445 144.436 84.2089C143.51 85.3019 141.441 101.049 141.441 101.049L141.44 101.049Z" fill="#F69FA5"/>
<path d="M146.398 82.1704C146.398 82.1704 145.817 92.7228 145.326 96.4467C145.424 96.1404 146.404 93.5646 147.01 88.6574C147.616 83.7503 147.572 81.043 147.572 81.043L146.398 82.1704Z" fill="#F48E92"/>
<path d="M144.736 61.5537C144.736 61.5537 146.708 65.7477 146.979 70.5299C147.252 75.3129 146.284 87.1265 146.284 87.1265C146.284 87.1265 145.109 88.915 140.691 89.3674C136.273 89.8206 134.411 88.8474 134.411 88.8474L132.251 74.2266C132.251 74.2266 126.649 71.0683 126.497 65.1615L144.736 61.5537Z" fill="#626262"/>
<path d="M139.327 68.4738H139.812C139.812 70.5172 140.68 72.587 142.077 73.8753C142.905 74.6399 143.85 75.0446 144.767 75.0446C144.8 70.9197 144.597 66.9725 144.077 64.6934L144.55 64.5854C145.681 69.5352 145.405 83.1637 144.18 88.5512C144.008 88.6224 143.824 88.6907 143.626 88.7583C144.264 86.1435 144.697 80.7487 144.761 75.5345C143.724 75.5338 142.664 75.0762 141.746 74.2301C140.253 72.8529 139.326 70.6465 139.326 68.4738H139.327Z" fill="#444444"/>
<path d="M120.535 10.6987C120.535 10.6987 120.722 8.73178 121.474 7.04024C122.495 4.74863 122.247 3.57932 119.141 4.39534C117.195 4.90654 115.629 6.28592 115.337 10.9448C115.253 12.2874 115.304 13.8372 115.34 16.9735C115.382 20.5747 115.618 24.2024 116.061 27.1712C116.258 28.4896 116.493 29.6288 117.223 31.0126C120.764 37.7185 125.72 42.2003 128.098 46.5294C131.094 46.326 135.259 41.4122 133.029 38.3332C130.482 37.2624 123.453 29.537 122.478 25.8682C121.829 23.4304 120.204 17.9695 120.287 15.1865L120.534 10.6995L120.535 10.6987Z" fill="#F69FA5"/>
<path d="M128.178 58.2064C128.105 56.9607 128.173 54.8872 128.182 54.271C125.063 51.2941 125.987 48.0947 127.163 45.7465C129.514 41.0516 131.764 38.395 133.84 38.4985L139.514 38.987C142.611 39.3909 144.726 39.7663 145.475 39.9381C147.381 40.3774 147.31 41.756 147.395 43.7766C147.49 45.9903 147.673 46.3495 147.111 50.0139L144.431 55.6085L143.932 58.4532C144.513 59.715 147.096 63.5381 147.501 69.3428C147.501 69.3428 143.084 70.8441 136.24 70.9065C129.068 70.9711 126.068 67.8547 126.068 67.8547L128.177 58.2064H128.178Z" fill="#9466B5"/>
<path d="M136.037 56.0901H136.038H136.038H136.039H136.041H136.041H136.042H136.044H136.044H136.045H136.047H136.048H136.049H136.05H136.051H136.052H136.052C140.368 56.0901 140.834 52.6483 140.848 52.541V52.5388C140.838 52.5623 139.618 55.2036 136.235 55.2036C136.169 55.2036 136.102 55.2028 136.035 55.2006C132.786 55.1022 131.492 52.3633 131.492 52.3633C131.492 52.3633 131.627 56.0798 136.035 56.0901H136.037Z" fill="#744992"/>
<path d="M129.275 23.5558L129.291 23.3803C129.799 17.959 132.923 16.9476 138.631 17.5323C142.849 17.9642 146.673 19.9289 147.946 23.6535C148.901 26.4527 148.449 29.5721 146.791 32.0238C145.048 34.6011 142.099 36.0348 137.931 35.6485H137.927C132.503 36.3037 128.767 28.9749 129.275 23.5566V23.5558Z" fill="#131218"/>
<path d="M164.796 29.4648C165.774 28.7281 166.563 27.749 167.091 26.648C167.943 24.875 168.34 22.1544 166.345 20.9388C166.117 20.8 165.864 20.695 165.598 20.6686C164.716 20.5789 164.008 21.3215 163.313 21.8716C161.992 22.919 160.236 23.4067 158.56 23.1923C156.736 22.9587 155.103 21.948 153.67 20.8C153.213 20.4335 152.762 20.0464 152.225 19.8114C151.794 19.6226 151.323 19.5404 150.854 19.5117C149.308 19.4184 147.748 19.9106 146.489 20.8088C146.043 21.1269 145.605 21.5411 145.527 22.0817C145.475 22.4357 145.663 22.8522 145.979 23.0299C146.346 23.2378 146.828 23.0226 147.22 22.9851C148.183 22.8911 149.205 23.0226 150.02 23.5771C150.818 24.1207 151.316 24.9888 151.853 25.7902C153.541 28.3095 156.038 30.4975 159.047 30.9345C161.056 31.2269 163.175 30.6855 164.795 29.4648H164.796Z" fill="#131218"/>
<path d="M132.678 20.8162C131.562 21.3406 130.006 23.8694 129.615 29.4362C129.282 34.1553 130.704 35.4612 131.442 35.8674C132.18 36.2743 133.683 36.2089 135.147 36.1031L134.883 38.9287C134.883 38.9287 130.491 42.8986 133.765 43.6273C135.401 43.9916 137.587 43.1432 139.095 42.1671C140.638 41.1689 141.207 39.3702 141.207 39.3702L141.753 33.221C141.753 33.221 142.525 34.1215 144.082 33.0006C145.366 32.0767 145.93 30.3682 145.093 29.3458C144.255 28.3227 142.519 28.4189 141.737 29.6932C141.737 29.6932 140.885 29.6829 140.186 28.0399C140.186 28.0399 138.261 28.2125 136.209 26.756C133.351 24.7266 132.85 21.7835 132.677 20.8154L132.678 20.8162Z" fill="#F69FA5"/>
<path d="M135.86 28.5231C135.811 28.8617 136.036 29.1724 136.362 29.218C136.689 29.2642 136.993 29.0277 137.042 28.6899C137.09 28.352 136.866 28.0406 136.54 27.995C136.213 27.9488 135.909 28.1853 135.86 28.5231Z" fill="#131218"/>
<path d="M133.783 33.6101C133.333 33.6101 132.934 33.2862 132.842 32.8132L134.753 32.396C134.857 32.9395 134.514 33.4728 133.986 33.5881C133.918 33.6028 133.849 33.6094 133.783 33.6094V33.6101Z" fill="#F38387"/>
<path d="M130.659 26.1814L131.939 25.4638C131.753 25.1002 131.313 24.968 130.959 25.1663C130.606 25.3646 130.472 25.82 130.659 26.1814H130.659Z" fill="#131218"/>
<path d="M136.884 26.5212L138.201 27.1712C138.396 26.8127 138.259 26.3772 137.896 26.198C137.531 26.0188 137.079 26.1635 136.884 26.5219V26.5212Z" fill="#131218"/>
<path d="M130.826 27.9248C130.777 28.2626 131.002 28.5733 131.328 28.6196C131.655 28.6659 131.959 28.4293 132.007 28.0915C132.056 27.7536 131.831 27.4429 131.505 27.3974C131.178 27.3511 130.874 27.5876 130.825 27.9255L130.826 27.9248Z" fill="#131218"/>
<path d="M133.282 31.4065L131.453 30.6507L133.71 27.8516L133.282 31.4065Z" fill="#F38387"/>
<path d="M135.06 37.0472L135.148 36.1048C136.686 36.0475 139.898 35.443 140.5 34.2568C140.5 34.2568 140.266 35.0156 139.257 35.7266C138.248 36.4375 135.06 37.0479 135.06 37.0479V37.0472Z" fill="#F38387"/>
<path d="M146.415 21.0167L145.717 18.4731C144.992 18.645 144.56 19.3545 144.753 20.0567C144.945 20.7589 145.69 21.1886 146.415 21.0167Z" fill="#131218"/>
<path d="M146.64 21.2165L148.099 19.016C147.49 18.587 146.67 18.731 146.267 19.3384C145.864 19.9458 146.031 20.7861 146.64 21.2158L146.64 21.2165Z" fill="#131218"/>
<path d="M141.738 29.6948L141.506 32.1723C140.571 32.0856 139.884 31.26 139.972 30.3287L140.186 28.0415L141.738 29.6948Z" fill="#131218"/>
<path d="M157.159 33.299C152.88 41.9748 149.685 44.406 146.77 49.8515C141.917 50.0755 141.557 42.5933 143.786 39.5143C143.786 39.5143 150.867 32.5564 152.061 28.9508C153.162 25.628 154.752 19.8262 154.668 17.0433C154.654 16.5783 154.446 16.1486 154.129 15.8078C153.21 14.8222 153.209 14.0311 152.618 12.9419C152.158 12.0935 151.654 11.7762 151.797 11.5852C151.982 11.3399 152.565 11.0197 153.29 11.4758C153.654 11.705 153.89 11.9738 154.421 12.5562C154.421 12.5562 154.296 10.4923 153.544 8.80153C152.524 6.51065 152.772 5.3406 155.877 6.15736C157.824 6.66783 159.518 8.18455 159.81 12.8434C159.894 14.1861 159.939 17.0719 159.78 18.7686C159.443 22.3544 158.999 25.6375 158.556 28.6064C158.36 29.9248 157.749 32.1025 157.159 33.2983V33.299Z" fill="#F69FA5"/>
<path d="M113.183 14.8611H113.199L113.21 14.8596L113.222 14.8567L113.234 14.8537L113.272 14.8368L124.586 8.3285C124.689 8.26901 124.773 8.12431 124.773 8.00533L124.774 0.875619L124.772 0.849912L124.772 0.840363L124.757 0.795559L124.751 0.786745L124.742 0.774259L124.733 0.766179L124.718 0.754428L124.707 0.748552L124.692 0.744145L124.676 0.742676L124.587 0.767648L113.272 7.27524L113.184 7.3531L113.14 7.41553L113.108 7.4831L113.1 7.50661L113.085 7.57638V7.59915V14.7289C113.085 14.8104 113.124 14.8589 113.183 14.8618V14.8611Z" fill="#42616A"/>
<path d="M124.773 0.849093C124.763 0.735247 124.683 0.607446 124.587 0.55089L124.373 0.427495C124.269 0.367267 124.102 0.367267 123.997 0.427495L112.684 6.93435L112.579 7.03278L112.551 7.07464L113.141 7.41398V7.41471L113.184 7.35228L113.273 7.27442L124.588 0.76683C124.683 0.711744 124.763 0.748468 124.773 0.848359V0.849093Z" fill="#384E55"/>
<path d="M113.53 11.2382C113.712 11.1339 113.864 10.8695 113.864 10.6609C113.864 10.6073 113.855 10.5618 113.836 10.528C113.775 10.4244 113.653 10.481 113.602 10.5096C113.421 10.6147 113.268 10.8776 113.267 11.0869C113.267 11.1406 113.278 11.1861 113.297 11.2191C113.356 11.3227 113.48 11.2669 113.53 11.2382Z" fill="#1FB5AD"/>
<path d="M124.293 4.68557C124.293 4.74433 124.334 4.76783 124.385 4.73845C124.435 4.70907 124.476 4.63856 124.476 4.58054C124.476 4.52251 124.435 4.49827 124.385 4.52765C124.334 4.55703 124.293 4.62828 124.293 4.6863V4.68557Z" fill="#414141"/>
<path d="M124.003 5.88534C124.003 5.93749 124.039 5.95805 124.084 5.93235C124.129 5.90664 124.166 5.84347 124.166 5.79132C124.166 5.73991 124.13 5.71861 124.084 5.74432C124.039 5.77002 124.003 5.83319 124.003 5.8846V5.88534Z" fill="#414141"/>
<path d="M124 4.50184V5.54996C124 5.60725 124.038 5.63148 124.085 5.60504C124.132 5.57787 124.17 5.50956 124.17 5.45227V4.40415C124.17 4.34686 124.132 4.32262 124.085 4.34906C124.038 4.37624 124 4.44455 124 4.50184Z" fill="#414141"/>
<path d="M113.246 14.8493C113.155 14.886 113.085 14.8361 113.085 14.7281V7.5984C113.085 7.53891 113.106 7.4728 113.14 7.41404L112.551 7.07471C112.516 7.13347 112.496 7.19884 112.496 7.25833V14.388C112.495 14.5063 112.579 14.6517 112.683 14.7112L112.898 14.8353C112.993 14.8897 113.142 14.8941 113.246 14.8486V14.8493Z" fill="#414141"/>
<path d="M121.775 2.19386C121.722 2.22544 121.637 2.22618 121.587 2.19827L121.552 2.14685V2.06826L121.593 2.01171L122.855 1.28603C122.908 1.25591 122.993 1.25371 123.043 1.28309L123.079 1.33157L123.08 1.41236L123.037 1.46892L121.776 2.19386H121.775Z" fill="#414141"/>
<path d="M121.775 2.11674L123.037 1.39106C123.091 1.36021 123.093 1.31174 123.043 1.28309C122.992 1.25371 122.908 1.25591 122.855 1.28603L121.592 2.01171C121.539 2.04182 121.536 2.0903 121.587 2.11968C121.637 2.14832 121.721 2.14685 121.775 2.116L121.775 2.11674Z" fill="#42616A"/>
<path d="M113.996 13.657V13.2486L113.998 7.54894L114.001 7.50634C114.012 7.42261 114.056 7.34769 114.122 7.29627L114.157 7.27277L123.131 2.1115L123.565 1.86177L123.613 1.84194C123.678 1.82798 123.725 1.87132 123.726 1.95358V8.06014C123.725 8.13433 123.716 8.20557 123.674 8.25772L123.64 8.29298L123.617 8.30767L114.158 13.7488C114.086 13.7899 113.996 13.7378 113.997 13.6562L113.996 13.657Z" fill="#1FB5AD"/>
<path d="M114.103 13.7643C114.047 13.7643 113.996 13.7188 113.996 13.6571V13.2487L113.997 7.54904L114 7.50644C114.011 7.42271 114.055 7.34779 114.122 7.29638L114.156 7.27288L123.13 2.11161L123.565 1.86188L123.613 1.84205C123.621 1.84058 123.629 1.83984 123.636 1.83984C123.689 1.83984 123.725 1.88244 123.725 1.95442V8.06099C123.725 8.13517 123.715 8.20641 123.674 8.25856L123.639 8.29382L123.616 8.30851L114.157 13.7496C114.14 13.7592 114.121 13.7643 114.103 13.7643ZM119.917 4.8542L119.705 4.97612L117.702 6.12707L117.676 6.14396C117.627 6.18069 117.596 6.23504 117.588 6.296L117.586 6.32612L117.585 10.451V10.7463C117.585 10.7911 117.622 10.8234 117.662 10.8234C117.675 10.8234 117.688 10.8197 117.7 10.8124L117.742 10.7889L117.813 10.7485L117.813 10.7478L120.01 9.48516L120.055 9.45946L120.071 9.44844L120.096 9.42273C120.126 9.38454 120.133 9.33312 120.133 9.27951V4.86081C120.133 4.80939 120.108 4.77781 120.069 4.77781C120.063 4.77781 120.058 4.77854 120.052 4.78001L120.018 4.79397L119.915 4.85199V4.85273L119.917 4.8542Z" fill="#BBE3E3"/>
<path d="M117.664 10.8242C117.623 10.8242 117.586 10.7918 117.586 10.747V10.4518L117.588 6.32687L117.589 6.29676C117.597 6.23579 117.629 6.18144 117.678 6.14472L117.703 6.12782L119.706 4.97687L119.918 4.85495L118.758 7.3177L117.82 6.06025L117.745 6.10285L118.679 7.48296L118.37 8.1396L118.757 8.45616L117.746 10.7896L117.704 10.8131C117.692 10.8205 117.678 10.8242 117.666 10.8242H117.664ZM117.815 10.7492L118.876 8.55679L120.012 9.48665L117.815 10.7492H117.815ZM120.057 9.46095L118.662 8.02869L120.019 4.79546L120.054 4.7815C120.06 4.78003 120.066 4.7793 120.071 4.7793C120.109 4.7793 120.135 4.81015 120.135 4.86229V9.28099C120.135 9.33461 120.127 9.38603 120.097 9.42422L120.072 9.44993L120.056 9.46095H120.057Z" fill="#04B8B2"/>
<path d="M117.744 10.7896L117.815 10.7485L117.814 10.7492L117.744 10.7896ZM119.917 4.85417V4.85343L120.02 4.79541L119.917 4.85417Z" fill="#9DD2CC"/>
<path d="M117.744 10.7896L118.755 8.45685L118.368 8.13955L118.678 7.48291L117.744 6.1028L117.818 6.0602L118.756 7.31692L119.917 4.85417L120.019 4.79541L118.662 8.02864L120.057 9.4609L120.013 9.48587L118.876 8.55601L117.815 10.7492L117.744 10.7896Z" fill="#00B4A6"/>
<path d="M120.287 15.1859C120.301 14.721 120.509 14.2913 120.826 13.9505C121.746 12.9648 121.746 12.173 122.337 11.0845C122.798 10.2362 123.301 9.91886 123.158 9.72789C122.973 9.48257 122.39 9.16233 121.665 9.61771C121.3 9.84688 121.064 10.1157 120.535 10.6982L120.287 15.1852V15.1859Z" fill="#F69FA5"/>
</g>
<defs>
<clipPath id="clip0_292_773">
<rect width="167.58" height="203.235" fill="white" transform="translate(0.209999 0.382324)"/>
</clipPath>
</defs>
</svg>
