<svg width="32" height="32" viewBox="0 0 32 32" fill="none" xmlns="http://www.w3.org/2000/svg">
<rect width="32" height="32" rx="6" fill="#F1F1F1"/>
<path d="M18.125 13.0762L21.8125 18.6699C22.0312 18.9512 22.0312 19.3262 21.875 19.6387C21.7187 19.9512 21.375 20.1387 21.0312 20.1387H10.9375C10.5937 20.1387 10.25 19.9512 10.0937 19.6387C9.93748 19.2949 9.96873 18.9199 10.1562 18.6387L12.1875 15.8262C12.5312 15.3262 13.375 15.3262 13.75 15.8262L14.25 16.5449L16.5312 13.0762C16.9062 12.5449 17.7812 12.5449 18.125 13.0762ZM10.9687 19.1387H20.9687L17.3125 13.6387L14.6875 17.7012C14.5937 17.8262 14.4375 17.9199 14.2812 17.9199C14.125 17.9512 13.9687 17.8574 13.875 17.7012L12.9375 16.4199L10.9687 19.1387ZM21.9687 9.13867C23.0937 9.13867 23.9687 10.0449 23.9687 11.1387V21.1387C23.9687 22.2637 23.0625 23.1387 21.9687 23.1387H9.96873C8.87498 23.1387 7.96873 22.2637 7.96873 21.1387V11.1387C7.96873 10.0449 8.87498 9.13867 9.96873 9.13867H21.9687ZM23 21.1387V11.1387C23 10.6074 22.5312 10.1387 22 10.1387H9.99998C9.43748 10.1387 8.99998 10.6074 8.99998 11.1387V21.1387C8.99998 21.7012 9.43748 22.1387 9.99998 22.1387H22C22.5312 22.1387 23 21.7012 23 21.1387ZM12.5 14.1387C11.6562 14.1387 11 13.4824 11 12.6387C11 11.8262 11.6562 11.1387 12.5 11.1387C13.3125 11.1387 14 11.8262 14 12.6387C14 13.4824 13.3125 14.1387 12.5 14.1387ZM12.5 12.1387C12.2187 12.1387 12 12.3887 12 12.6387C12 12.9199 12.2187 13.1387 12.5 13.1387C12.75 13.1387 12.9687 12.9199 12.9687 12.6387C12.9687 12.3887 12.75 12.1387 12.5 12.1387Z" fill="#C1C1C1"/>
</svg>
