<svg width="180" height="180" viewBox="0 0 180 180" fill="none" xmlns="http://www.w3.org/2000/svg">
    <g clip-path="url(#clip0_81_35)">
        <path d="M146.937 47.3696H95.7036C93.1851 47.3696 91.1433 45.376 91.1433 42.9174V4.45189C91.1433 1.99228 93.1851 1.52588e-05 95.7036 1.52588e-05H146.937C149.455 1.52588e-05 151.498 1.99228 151.498 4.45189V42.9174C151.498 45.376 149.455 47.3696 146.937 47.3696Z" fill="#1FB5AD"/>
        <path d="M142.755 10.6204H116.061V8.16547H142.755V10.6204Z" fill="white"/>
        <path d="M142.755 16.8829H116.061V14.4279H142.755V16.8829Z" fill="white"/>
        <path d="M126.535 23.144H116.061V20.6902H126.535V23.144Z" fill="white"/>
        <path d="M116.143 31.0754V32.5508H117.77V39.0198H119.653V31.0754H116.143Z" fill="white"/>
        <path d="M125.722 39.156C127.733 39.156 129.209 37.6692 129.209 35.0477C129.209 32.4258 127.733 30.9393 125.722 30.9393C123.722 30.9393 122.234 32.4258 122.234 35.0477C122.234 37.6692 123.722 39.156 125.722 39.156ZM125.722 37.601C124.792 37.601 124.141 36.8523 124.141 35.0477C124.141 33.2431 124.792 32.4939 125.722 32.4939C126.663 32.4939 127.314 33.2431 127.314 35.0477C127.314 36.8523 126.663 37.601 125.722 37.601Z" fill="white"/>
        <path d="M137.928 36.6933C137.928 35.0931 136.51 34.6731 135.22 34.3781V32.4489C135.801 32.517 136.405 32.71 136.998 33.0389L137.58 31.6431C136.94 31.246 136.091 31.0189 135.22 30.9508V29.7137H134.057V30.9733C132.22 31.1777 131.325 32.2104 131.325 33.4133C131.325 35.036 132.767 35.4562 134.057 35.7627V37.6579C133.22 37.5783 132.383 37.2719 131.802 36.8521L131.162 38.2365C131.802 38.7246 132.907 39.0763 134.057 39.1444V40.3815H135.22V39.1104C137.045 38.895 137.929 37.8733 137.929 36.6933H137.928ZM133.197 33.3227C133.197 32.9481 133.441 32.6189 134.057 32.4829V34.0945C133.545 33.9354 133.197 33.72 133.197 33.3229V33.3227ZM135.22 37.6125V36.0464C135.719 36.2166 136.056 36.4321 136.056 36.8298C136.056 37.1929 135.801 37.4879 135.22 37.6127V37.6125Z" fill="white"/>
        <path d="M113.715 26.156H94.7178V7.60884H113.715V26.156Z" fill="white"/>
        <path d="M175.438 124.55H96.2338C93.7153 124.55 91.6731 122.556 91.6731 120.098V59.6789C91.6731 57.2203 93.7153 55.2267 96.2338 55.2267H175.438C177.958 55.2267 180 57.2203 180 59.6789V120.098C180 122.556 177.958 124.55 175.438 124.55Z" fill="#EDEDED"/>
        <path d="M167.205 70.7696H128.139V67.1773H167.205V70.7696Z" fill="#9466B5"/>
        <path d="M167.205 79.934H128.139V76.3407H167.205V79.934Z" fill="#9466B5"/>
        <path d="M143.468 89.0974H128.139V85.5053H143.468V89.0974Z" fill="#9466B5"/>
        <path d="M136.951 106.215C137.835 105.684 138.346 104.87 138.346 103.824C138.346 101.781 136.475 100.502 133.735 100.502C131.03 100.502 129.159 101.781 129.159 103.824C129.159 104.87 129.652 105.684 130.537 106.215C129.397 106.78 128.733 107.71 128.733 108.956C128.733 111.148 130.724 112.527 133.735 112.527C136.764 112.527 138.771 111.148 138.771 108.956C138.771 107.71 138.108 106.78 136.951 106.215ZM133.735 102.478C134.858 102.478 135.607 103.026 135.607 103.94C135.607 104.82 134.875 105.368 133.735 105.368C132.612 105.368 131.898 104.82 131.898 103.94C131.898 103.026 132.629 102.478 133.735 102.478ZM133.735 110.55C132.374 110.55 131.524 109.903 131.524 108.873C131.524 107.843 132.374 107.212 133.735 107.212C135.113 107.212 135.981 107.843 135.981 108.873C135.981 109.902 135.113 110.55 133.735 110.55Z" fill="#9466B5"/>
        <path d="M151.446 108.923C151.446 106.581 149.371 105.966 147.482 105.534V102.711C148.333 102.811 149.218 103.093 150.085 103.575L150.936 101.532C150 100.951 148.758 100.618 147.482 100.519V98.7082H145.781V100.552C143.093 100.851 141.783 102.362 141.783 104.123C141.783 106.498 143.892 107.112 145.781 107.561V110.335C144.556 110.218 143.331 109.77 142.48 109.155L141.544 111.182C142.48 111.896 144.096 112.41 145.781 112.51V114.32H147.482V112.46C150.153 112.145 151.446 110.65 151.446 108.923ZM144.522 103.99C144.522 103.442 144.879 102.96 145.781 102.761V105.119C145.032 104.887 144.522 104.571 144.522 103.99ZM147.482 110.268V107.976C148.214 108.225 148.707 108.541 148.707 109.122C148.707 109.654 148.333 110.085 147.482 110.268Z" fill="#9466B5"/>
        <path d="M124.707 93.5043H96.9038V66.3624H124.707V93.5043Z" fill="#9466B5"/>
        <path d="M146.937 180H95.7036C93.1851 180 91.1433 178.007 91.1433 175.548V137.082C91.1433 134.623 93.1851 132.631 95.7036 132.631H146.937C149.455 132.631 151.498 134.623 151.498 137.082V175.548C151.498 178.007 149.455 180 146.937 180Z" fill="#D8D8D8"/>
        <path d="M142.755 143.25H116.061V140.796H142.755V143.25Z" fill="#1FB5AD"/>
        <path d="M142.755 149.512H116.061V147.057H142.755V149.512Z" fill="#1FB5AD"/>
        <path d="M126.535 155.775H116.061V153.32H126.535V155.775Z" fill="#1FB5AD"/>
        <path d="M116.143 163.703V165.179H117.77V171.648H119.653V163.703H116.143Z" fill="#1FB5AD"/>
        <path d="M126.036 166.938L127.873 164.895V163.704H122.176V165.179H125.64L123.966 167.029V168.243H124.827C125.896 168.243 126.349 168.618 126.349 169.219C126.349 169.866 125.768 170.24 124.827 170.24C123.978 170.24 123.118 169.979 122.501 169.526L121.769 170.932C122.559 171.477 123.734 171.784 124.873 171.784C127.186 171.784 128.244 170.558 128.244 169.219C128.244 168.05 127.5 167.165 126.036 166.938L126.036 166.938Z" fill="#1FB5AD"/>
        <path d="M136.917 169.321C136.917 167.721 135.498 167.301 134.208 167.006V165.077C134.789 165.145 135.394 165.338 135.987 165.667L136.568 164.271C135.929 163.874 135.08 163.647 134.208 163.579V162.342H133.046V163.601C131.209 163.806 130.314 164.838 130.314 166.041C130.314 167.664 131.755 168.084 133.046 168.391V170.286C132.209 170.206 131.372 169.9 130.79 169.48L130.151 170.865C130.79 171.353 131.895 171.704 133.046 171.772V173.01H134.208V171.738C136.034 171.523 136.917 170.501 136.917 169.321H136.917ZM132.185 165.951C132.185 165.576 132.429 165.247 133.045 165.111V166.723C132.534 166.563 132.185 166.348 132.185 165.951V165.951ZM134.208 170.241V168.674C134.708 168.845 135.045 169.06 135.045 169.458C135.045 169.821 134.789 170.116 134.208 170.241V170.241Z" fill="#1FB5AD"/>
        <path d="M113.715 158.787H94.7178V140.24H113.715V158.787Z" fill="#1FB5AD"/>
        <path d="M75.7387 47.3696H33.0622C30.5437 47.3696 28.5015 45.376 28.5015 42.9174V4.45189C28.5015 1.99228 30.5437 1.52588e-05 33.0622 1.52588e-05H75.7387C78.2572 1.52588e-05 80.299 1.99228 80.299 4.45189V42.9174C80.299 45.376 78.2572 47.3696 75.7387 47.3696Z" fill="#EDEDED"/>
        <path d="M68.2231 44.4137H60.2157L56.1596 15.5268C56.0425 14.6703 55.2934 14.0318 54.3953 14.0318C53.507 14.0318 52.7575 14.6703 52.6408 15.5268L48.5847 44.4137H40.5759L46.0381 5.44055L46.3866 2.9557H62.4136L62.7621 5.44055L68.2229 44.4137H68.2231Z" fill="#00A1FE"/>
        <path d="M62.7624 5.44054H46.0383L46.3868 2.95551H62.4138L62.7624 5.44054Z" fill="#0989C9"/>
        <path d="M48.0378 5.44054H47.4358V2.95551H48.0378V5.44054Z" fill="#00A1FE"/>
        <path d="M51.9731 5.44054H51.3713V2.95551H51.9731V5.44054Z" fill="#00A1FE"/>
        <path d="M57.4147 5.44054H56.8137V2.95551H57.4147V5.44054Z" fill="#00A1FE"/>
        <path d="M61.3501 5.44054H60.7495V2.95551H61.3501V5.44054Z" fill="#00A1FE"/>
        <path d="M45.6302 10.5408C45.462 10.5408 45.3584 10.5325 45.3391 10.5313L45.383 10.0174C45.4061 10.0184 47.4654 10.1661 48.8579 8.90978C49.7279 8.12724 50.1676 6.96022 50.1676 5.44035H50.6965C50.6965 7.11276 50.1971 8.40807 49.2128 9.29173C47.96 10.4168 46.297 10.5407 45.6306 10.5407L45.6302 10.5408Z" fill="#0989C9"/>
        <path d="M63.1594 10.5409C62.4928 10.5409 60.8297 10.417 59.5772 9.29193C58.5929 8.40827 58.0935 7.11277 58.0935 5.44055H58.6223C58.6223 6.96041 59.0619 8.12743 59.9321 8.90998C61.3246 10.1663 63.3853 10.0186 63.4069 10.0176L63.4509 10.5315C63.4316 10.5325 63.328 10.541 63.1598 10.541L63.1594 10.5409Z" fill="#0989C9"/>
        <path d="M55.5639 12.438H53.3159V5.44055H53.8436V11.9218H55.5639V12.438Z" fill="#0989C9"/>
        <path d="M46.1238 12.99L46.0896 12.9886C45.9445 12.9698 45.8433 12.84 45.8616 12.6983L45.9993 11.6766C46.0176 11.534 46.1564 11.4361 46.2944 11.454C46.4391 11.4719 46.5417 11.6017 46.5234 11.7434L46.3856 12.766C46.3673 12.8945 46.2554 12.99 46.1238 12.99ZM45.8506 15.0356L45.8154 15.0333C45.6703 15.0145 45.5695 14.8846 45.5874 14.7443L45.7252 13.7213C45.7435 13.5796 45.8836 13.4789 46.0212 13.4991C46.1651 13.5165 46.2675 13.6464 46.2492 13.788L46.1115 14.8111C46.0946 14.9405 45.9812 15.0356 45.8506 15.0356ZM45.5753 17.0805L45.5411 17.0781C45.3963 17.0589 45.2951 16.9304 45.3134 16.7888L45.4498 15.7671C45.4691 15.6245 45.6055 15.5266 45.7472 15.5445C45.891 15.5624 45.9932 15.6922 45.9749 15.8339L45.8375 16.8565C45.8202 16.985 45.7059 17.0805 45.5753 17.0805ZM45.3011 19.1261L45.2673 19.1238C45.1222 19.1049 45.021 18.9751 45.0393 18.8348L45.1771 17.8118C45.1949 17.6701 45.3327 17.5703 45.4731 17.5895C45.6182 17.607 45.719 17.7369 45.7007 17.8785L45.5633 18.9015C45.546 19.031 45.4327 19.1261 45.3011 19.1261ZM45.0283 21.171L44.9932 21.1696C44.848 21.1494 44.7468 21.0209 44.7651 20.8792L44.9015 19.8576C44.9212 19.7159 45.0562 19.6148 45.1979 19.634C45.3427 19.6528 45.4453 19.7827 45.4256 19.9244L45.2892 20.946C45.2723 21.0755 45.159 21.171 45.0283 21.171ZM44.753 23.2166L44.7188 23.2143C44.5737 23.1954 44.4729 23.0656 44.4908 22.9253L44.6285 21.9023C44.6468 21.7606 44.7882 21.6608 44.9236 21.68C45.0687 21.6989 45.1709 21.8287 45.1526 21.969L45.0148 22.992C44.9979 23.1215 44.8846 23.2166 44.753 23.2166ZM44.4802 25.2614L44.4446 25.2591C44.2999 25.2413 44.1987 25.1114 44.217 24.9697L44.3544 23.9471C44.3727 23.8066 44.5081 23.7066 44.6494 23.7245C44.7945 23.7433 44.8967 23.8732 44.8774 24.0135L44.7411 25.0365C44.7238 25.1663 44.6104 25.2614 44.4802 25.2614ZM44.2047 27.3061L44.1709 27.3047C44.0257 27.2859 43.9245 27.1561 43.9428 27.0148L44.0792 25.9927C44.0985 25.8515 44.2315 25.7527 44.3766 25.7705C44.5204 25.7894 44.6226 25.9192 44.6043 26.0595L44.4669 27.0825C44.4496 27.212 44.3353 27.3061 44.2047 27.3061ZM43.9307 29.3519L43.8965 29.3496C43.7514 29.3317 43.6502 29.2019 43.6685 29.0602L43.8062 28.0376C43.8245 27.8959 43.9659 27.7948 44.1023 27.815C44.2474 27.8338 44.3486 27.9637 44.3303 28.1053L44.1925 29.127C44.1756 29.2568 44.0623 29.3519 43.9307 29.3519ZM43.6565 31.3966L43.6223 31.3952C43.4772 31.3764 43.3764 31.247 43.3943 31.1062L43.5311 30.0832C43.5504 29.9419 43.6931 29.8432 43.8271 29.861C43.9732 29.8789 44.0744 30.0083 44.0548 30.15L43.9184 31.173C43.9001 31.3025 43.7868 31.3966 43.6565 31.3966ZM43.3838 33.4424L43.3482 33.4401C43.2035 33.4209 43.1023 33.2914 43.1205 33.1507L43.2579 32.1281C43.2762 31.9864 43.4078 31.8853 43.5544 31.9055C43.6981 31.9243 43.8003 32.0541 43.782 32.1958L43.6446 33.2175C43.6273 33.3473 43.514 33.4424 43.3838 33.4424ZM43.1096 35.4882L43.0744 35.4859C42.9305 35.4667 42.8281 35.3373 42.8464 35.1965L42.9842 34.1735C43.0021 34.0322 43.1365 33.9288 43.2788 33.9513C43.4239 33.9692 43.5261 34.0986 43.5078 34.2403L43.3705 35.2633C43.3532 35.3928 43.2398 35.4882 43.1096 35.4882ZM42.8343 37.5329L42.8001 37.5306C42.6549 37.5114 42.5537 37.3819 42.572 37.2416L42.7084 36.2186C42.7281 36.0769 42.8631 35.9768 43.0058 35.996C43.151 36.0148 43.2522 36.1446 43.2339 36.2863L43.0961 37.308C43.0792 37.4378 42.9645 37.5329 42.8343 37.5329ZM42.5601 39.5787L42.5273 39.5764C42.3808 39.5572 42.28 39.4287 42.2979 39.287L42.4346 38.264C42.4539 38.1227 42.5879 38.0203 42.7317 38.0418C42.8756 38.0606 42.978 38.1891 42.9597 38.3308L42.8219 39.3538C42.805 39.4832 42.6917 39.5787 42.5601 39.5787ZM42.2859 41.6234L42.2517 41.6211C42.107 41.6032 42.0058 41.4734 42.0241 41.3321L42.1615 40.3091C42.1798 40.1674 42.3185 40.0686 42.4565 40.0865C42.6026 40.1053 42.7038 40.2351 42.6855 40.3754L42.5482 41.3985C42.5299 41.5283 42.4175 41.6234 42.2859 41.6234ZM42.0132 43.6681L41.978 43.6671C41.8328 43.6479 41.7316 43.5184 41.7499 43.3767L41.8877 42.3547C41.9056 42.2134 42.041 42.11 42.1837 42.1325C42.3275 42.1513 42.4297 42.2811 42.4114 42.4215L42.274 43.4445C42.2567 43.573 42.1434 43.6681 42.0132 43.6681Z" fill="#0989C9"/>
        <path d="M62.6659 12.99C62.5343 12.99 62.421 12.8945 62.4041 12.766L62.2663 11.7434C62.248 11.6017 62.3506 11.4721 62.4953 11.454C62.6283 11.4361 62.7721 11.534 62.7903 11.6766L62.9281 12.6983C62.9464 12.84 62.8452 12.9696 62.7001 12.9886L62.6659 12.99ZM62.9387 15.0356C62.8098 15.0356 62.6951 14.9405 62.6782 14.8111L62.5404 13.788C62.5221 13.6464 62.6233 13.5167 62.7685 13.4991C62.9001 13.4789 63.0448 13.5796 63.0645 13.7213L63.2019 14.7443C63.2202 14.8846 63.1194 15.0145 62.9742 15.0333L62.9387 15.0356ZM63.2142 17.0805C63.0836 17.0805 62.9693 16.985 62.952 16.8565L62.8146 15.8339C62.7963 15.6922 62.8985 15.5625 63.0422 15.5445C63.1848 15.5266 63.319 15.6245 63.3397 15.7671L63.476 16.7888C63.4957 16.9304 63.3931 17.0589 63.2484 17.0781L63.2142 17.0805ZM63.4884 19.1261C63.3568 19.1261 63.2432 19.031 63.2261 18.9015L63.0884 17.8785C63.0701 17.7369 63.1713 17.6072 63.3178 17.5895C63.4504 17.5694 63.5941 17.6701 63.6124 17.8118L63.7502 18.8348C63.7685 18.9751 63.6673 19.1049 63.5222 19.1238L63.4884 19.1261ZM63.7611 21.171C63.6305 21.171 63.5174 21.0755 63.5003 20.946L63.3639 19.9244C63.3442 19.7827 63.4454 19.653 63.5916 19.634C63.7293 19.6138 63.8683 19.7159 63.888 19.8576L64.0244 20.8792C64.0427 21.0209 63.9415 21.1494 63.7963 21.1696L63.7611 21.171ZM64.0365 23.2166C63.9049 23.2166 63.7916 23.1215 63.7747 22.992L63.6369 21.969C63.6186 21.8287 63.7208 21.6989 63.8649 21.68C64.0063 21.6599 64.1427 21.7606 64.1609 21.9023L64.2983 22.9253C64.3166 23.0656 64.2158 23.1954 64.0707 23.2143L64.0365 23.2166ZM64.3093 25.2614C64.18 25.2614 64.0657 25.1663 64.0484 25.0365L63.911 24.0135C63.8927 23.8732 63.9949 23.7433 64.1401 23.7245C64.2778 23.7053 64.4154 23.8054 64.4351 23.9471L64.5725 24.9697C64.5908 25.1114 64.4896 25.2411 64.3448 25.2591L64.3093 25.2614ZM64.5848 27.3061C64.4542 27.3061 64.3397 27.212 64.3226 27.0825L64.1848 26.0595C64.1665 25.9192 64.2677 25.7894 64.4128 25.7705C64.553 25.7527 64.6906 25.8515 64.7103 25.9927L64.8466 27.0148C64.8659 27.1561 64.7637 27.2859 64.6186 27.3047L64.5848 27.3061ZM64.8576 29.3519C64.727 29.3519 64.6138 29.2568 64.5967 29.127L64.459 28.1053C64.4407 27.9637 64.5419 27.834 64.688 27.815C64.8186 27.7948 64.9636 27.8959 64.983 28.0376L65.1208 29.0602C65.1391 29.2019 65.0379 29.3316 64.8928 29.3496L64.8576 29.3519ZM65.1329 31.3966C65.0013 31.3966 64.8892 31.3025 64.8711 31.173L64.7343 30.15C64.715 30.0083 64.8162 29.8789 64.9624 29.861C65.0977 29.8432 65.2377 29.9419 65.2574 30.0832L65.3948 31.1062C65.4131 31.2468 65.3123 31.3764 65.1671 31.3952L65.1329 31.3966ZM65.4057 33.4424C65.2755 33.4424 65.1622 33.3473 65.1449 33.2175L65.0075 32.1958C64.9892 32.0541 65.0914 31.9245 65.2351 31.9055C65.3753 31.8853 65.5131 31.9864 65.5316 32.1281L65.6689 33.1507C65.6872 33.2912 65.586 33.4209 65.4413 33.4401L65.4057 33.4424ZM65.6799 35.4882C65.5496 35.4882 65.4361 35.3928 65.419 35.2633L65.2813 34.2403C65.263 34.0986 65.3655 33.9692 65.5107 33.9513C65.6506 33.9274 65.787 34.0322 65.8053 34.1735L65.9431 35.1965C65.9614 35.3371 65.8592 35.4667 65.7151 35.4859L65.6799 35.4882ZM65.9552 37.5329C65.825 37.5329 65.7103 37.4378 65.6934 37.308L65.5556 36.2863C65.5373 36.1446 65.6385 36.015 65.7836 35.996C65.9274 35.9768 66.0604 36.0769 66.0811 36.2186L66.2175 37.2416C66.2367 37.3819 66.1345 37.5114 65.9894 37.5306L65.9552 37.5329ZM66.2284 39.5787C66.0978 39.5787 65.9846 39.4832 65.9675 39.3538L65.8298 38.3308C65.8115 38.1891 65.9127 38.0606 66.0588 38.0418C66.199 38.0193 66.3355 38.1227 66.3548 38.264L66.4912 39.287C66.5095 39.4287 66.4087 39.5572 66.2622 39.5764L66.2284 39.5787ZM66.5037 41.6234C66.3721 41.6234 66.2588 41.5283 66.2415 41.3985L66.1041 40.3754C66.0858 40.2351 66.187 40.1053 66.3332 40.0865C66.4695 40.0649 66.6085 40.1674 66.6282 40.3091L66.7656 41.3321C66.7839 41.4734 66.6827 41.6032 66.5379 41.6211L66.5037 41.6234ZM66.7765 43.6681C66.6463 43.6681 66.5328 43.573 66.5157 43.4445L66.3779 42.4215C66.3596 42.2811 66.4608 42.1513 66.6059 42.1325C66.7437 42.11 66.8827 42.2134 66.902 42.3547L67.0397 43.3767C67.058 43.5184 66.9568 43.6479 66.8117 43.6671L66.7765 43.6681Z" fill="#0989C9"/>
        <path d="M75.7387 180H33.0622C30.5437 180 28.5015 178.007 28.5015 175.548V137.082C28.5015 134.623 30.5437 132.631 33.0622 132.631H75.7387C78.2572 132.631 80.299 134.623 80.299 137.082V175.548C80.299 178.007 78.2572 180 75.7387 180Z" fill="#1FB5AD"/>
        <path d="M58.4247 142.505V142.507C58.4247 144.676 56.6225 146.437 54.4003 146.437C52.1768 146.437 50.3746 144.676 50.3746 142.507V142.505H44.4932V167.935C44.4932 169.145 45.4972 170.124 46.7364 170.124H62.0615C63.3007 170.124 64.3047 169.146 64.3047 167.935V142.505H58.4247Z" fill="#7133FF"/>
        <path d="M58.4248 142.504V142.507C58.4248 144.676 56.6226 146.437 54.4005 146.437C52.177 146.437 50.3747 144.676 50.3747 142.507V142.504H48.6165C48.6165 145.627 51.2044 148.152 54.4015 148.152C57.5938 148.152 60.1817 145.626 60.1817 142.504H58.4248Z" fill="#5127B9"/>
        <path d="M64.3071 142.507C64.3071 142.507 69.3758 144.048 70.0898 149.589H64.3071V142.507Z" fill="#7133FF"/>
        <path d="M44.4931 142.507C44.4931 142.507 39.4232 144.048 38.7107 149.589H44.4931V142.507Z" fill="#7133FF"/>
        <path d="M38.7107 149.588V150.674H44.4931V149.588H38.7107Z" fill="#5127B9"/>
        <path d="M64.3071 149.588V150.674H70.0898V149.588H64.3071Z" fill="#5127B9"/>
        <path d="M55.7992 170.124H46.7364C45.4972 170.124 44.4932 169.145 44.4932 167.934V147.28C44.4932 147.28 46.9119 168.348 55.7992 170.124Z" fill="#5127B9"/>
        <path d="M51.7368 150.752V151.744H50.566V150.752H49.97V153.268H50.566V152.236H51.7368V153.268H52.333V150.752H51.7368Z" fill="white"/>
        <path d="M53.9054 152.8V152.218H55.1018V151.766H53.9054V151.219H55.2601V150.752H53.3127V153.268H55.3076V152.8H53.9054Z" fill="white"/>
        <path d="M58.3639 150.752H57.7786L57.0901 151.87L56.4018 150.752H55.7688L56.7662 152.369V153.268H57.3627V152.377L58.3639 150.752Z" fill="white"/>
        <path d="M59.0554 152.394H59.5117L59.626 150.752H58.9411L59.0554 152.394ZM59.2835 153.296C59.4896 153.296 59.6371 153.149 59.6371 152.969C59.6371 152.786 59.4896 152.65 59.2835 152.65C59.0777 152.65 58.9302 152.786 58.9302 152.969C58.9302 153.149 59.0777 153.296 59.2835 153.296Z" fill="white"/>
        <path d="M71.2413 124.55H4.5599C2.04135 124.55 -0.000244141 122.556 -0.000244141 120.098V59.6789C-0.000244141 57.2203 2.04135 55.2267 4.5599 55.2267H71.2413C73.7598 55.2267 75.8016 57.2203 75.8016 59.6789V120.098C75.8016 122.556 73.7598 124.55 71.2413 124.55Z" fill="#9466B5"/>
        <path d="M20.4966 117.697L28.5453 83.8259L26.3878 69.2587C25.8223 65.4692 28.8332 62.0793 32.7601 62.0793H32.7881C32.7881 62.63 32.8808 63.1641 33.0575 63.6613C33.1766 64.0227 33.3438 64.3583 33.5472 64.6735C34.3257 65.9402 35.6868 66.8441 37.2622 67.0248C37.4753 67.0614 37.6886 67.07 37.9007 67.07C38.1236 67.07 38.3369 67.0616 38.5487 67.0248C40.1243 66.8346 41.4768 65.94 42.2639 64.6649C42.4673 64.3581 42.6255 64.0142 42.745 63.6611C42.9217 63.1639 43.0144 62.6298 43.0144 62.0791H43.051C46.9693 62.0791 49.9799 65.469 49.4233 69.2585L47.2556 83.8257L55.3057 117.697H20.4966V117.697Z" fill="#FFE745"/>
        <path d="M37.9844 85.9203C32.3883 85.9203 28.4469 84.197 28.3894 84.1708L28.7085 83.4894C28.7938 83.5272 37.3653 87.267 47.1151 83.481L47.399 84.178C44.0311 85.4852 40.7988 85.9205 37.9842 85.9205L37.9844 85.9203Z" fill="#9466B5"/>
        <path d="M35.2042 96.5255L35.1102 96.5147C34.9044 96.4648 34.7799 96.2614 34.831 96.0605L37.5299 85.4685C37.5738 85.3019 37.7261 85.1853 37.9029 85.1843C38.0794 85.1843 38.2331 85.3006 38.2755 85.4673L40.9328 95.7096C40.9853 95.9105 40.861 96.1139 40.655 96.1651C40.4493 96.214 40.2409 96.0951 40.1884 95.894L37.9061 87.098L35.5754 96.2412C35.5315 96.4112 35.3754 96.5254 35.2038 96.5254L35.2042 96.5255Z" fill="#9466B5"/>
        <path d="M42.6716 68.2727C42.3475 68.5617 41.9211 68.7067 41.402 68.7067C40.6515 68.7067 39.6976 68.4084 38.5123 67.8207C38.1331 67.6315 37.6788 67.6315 37.2997 67.8207C35.2895 68.8247 33.9275 68.9697 33.1316 68.2729C31.8803 67.1785 32.7793 64.4295 33.0573 63.6615C33.1764 64.0229 33.3436 64.3585 33.5469 64.6736C33.2607 65.7225 33.0376 67.1785 33.6491 67.7209C34.1585 68.1741 35.2977 67.9742 36.9462 67.1511C37.0488 67.0975 37.15 67.0523 37.2619 67.025C37.6788 66.8978 38.1329 66.8978 38.5484 67.025C38.6608 67.0616 38.763 67.0975 38.8642 67.1511C40.503 67.9742 41.6433 68.1741 42.1613 67.7209C42.773 67.1785 42.5511 65.7141 42.2638 64.6653C42.4672 64.3585 42.6255 64.0145 42.745 63.6615C43.0326 64.4295 43.9219 67.1785 42.6718 68.2729L42.6716 68.2727Z" fill="#9466B5"/>
        <path d="M38.4743 70.9097C38.4743 70.6015 38.2184 70.3517 37.9031 70.3517C37.5874 70.3517 37.3315 70.6015 37.3315 70.9097C37.3315 71.2175 37.5874 71.4673 37.9031 71.4673C38.2184 71.4673 38.4743 71.2175 38.4743 70.9097Z" fill="#9466B5"/>
        <path d="M38.4743 74.0498C38.4743 73.7416 38.2184 73.4922 37.9031 73.4922C37.5874 73.4922 37.3315 73.7418 37.3315 74.0498C37.3315 74.358 37.5874 74.6078 37.9031 74.6078C38.2184 74.6078 38.4743 74.358 38.4743 74.0498Z" fill="#9466B5"/>
        <path d="M38.4743 77.1899C38.4743 76.882 38.2184 76.6323 37.9031 76.6323C37.5874 76.6323 37.3315 76.882 37.3315 77.1899C37.3315 77.4981 37.5874 77.7478 37.9031 77.7478C38.2184 77.7478 38.4743 77.4981 38.4743 77.1899Z" fill="#9466B5"/>
        <path d="M26.8394 117.696L31.9824 93.0786L31.0299 117.696H26.8394Z" fill="#EFB841"/>
        <path d="M48.9661 117.696L43.823 93.0786L44.7759 117.696H48.9661Z" fill="#EFB841"/>
        <path d="M28.549 73.4076C29.7029 73.8654 30.8091 74.2437 31.9302 74.3058C32.4905 74.3557 33.04 74.2687 33.5835 74.1237C34.1402 73.9883 34.6386 73.6907 35.2027 73.4076C34.8639 73.913 34.4082 74.3962 33.8076 74.6648C33.2253 74.9575 32.5465 75.0992 31.8887 75.054C31.2308 75.0074 30.5946 74.8325 30.0282 74.5472C29.4614 74.2617 28.9413 73.8918 28.5488 73.4076H28.549Z" fill="#EFB841"/>
        <path d="M47.2564 73.4076C46.8644 73.8918 46.3439 74.2615 45.7784 74.5472C45.2106 74.8325 44.5748 75.0074 43.918 75.054C43.2601 75.0992 42.5804 74.9575 41.998 74.6648C41.397 74.396 40.9416 73.913 40.6028 73.4076C41.1672 73.6907 41.6652 73.9881 42.2233 74.1237C42.7655 74.2687 43.315 74.3557 43.8756 74.3058C44.9963 74.2437 46.1041 73.8654 47.2566 73.4076H47.2564Z" fill="#EFB841"/>
    </g>
    <defs>
        <clipPath id="clip0_81_35">
            <rect width="180" height="180" fill="white"/>
        </clipPath>
    </defs>
</svg>
