<svg width="16" height="16" viewBox="0 0 16 16" fill="none" xmlns="http://www.w3.org/2000/svg">
<rect width="16" height="16" rx="6" fill="#F1F1F1"/>
<path d="M8 2.5C11.3047 2.5 14 5.19531 14 8.5C14 11.8281 11.3047 14.5 8 14.5C4.67188 14.5 2 11.8281 2 8.5C2 5.19531 4.67188 2.5 8 2.5ZM10.9766 10.0469C11.0234 9.88281 10.9297 9.69531 10.7656 9.625L9.5 9.08594C9.33594 9.01562 9.17188 9.0625 9.07812 9.17969L8.5625 9.8125C7.74219 9.41406 7.08594 8.75781 6.6875 7.9375L7.32031 7.42188C7.4375 7.32812 7.48438 7.16406 7.41406 7L6.875 5.73438C6.80469 5.57031 6.61719 5.47656 6.45312 5.52344L5.28125 5.78125C5.11719 5.82812 5 5.96875 5 6.15625C5 9.10938 7.39062 11.5 10.3438 11.5C10.5312 11.5 10.6719 11.4062 10.6953 11.2188L10.9766 10.0469Z" fill="#1FB5AD"/>
</svg>
